Coordinates
version=1
nRows=26
nColumns=18
inDegrees=yes

Units are S.I. units (second, meters, Newtons, ...)
If the header above contains a line with 'inDegrees', this indicates whether rotational values are in degrees (yes) or radians (no).

endheader
time	ground_thorax_rot_x	ground_thorax_rot_y	ground_thorax_rot_z	ground_thorax_tx	ground_thorax_ty	ground_thorax_tz	clav_prot	clav_elev	scapula_abduction	scapula_elevation	scapula_upward_rot	scapula_winging	plane_elv	shoulder_elv	axial_rot	elbow_flexion	pro_sup
      0.00000000	      3.34485260	     -1.75532702	     -8.04822828	     -0.00466405	      0.00469886	      0.00029214	    -29.36766158	     -5.76821750	    -24.95163340	     -5.00042719	     10.72356668	      6.05298936	    -31.39505930	     21.95334946	     25.58195679	      0.00000000	     34.32000000
      0.01000000	      3.34527547	     -1.75573754	     -8.04846470	     -0.00467671	      0.00471310	      0.00025248	    -29.36760230	     -5.76801566	    -24.95193375	     -5.00023808	     10.72330207	      6.05338181	    -31.39522116	     21.95316398	     25.58194733	      0.00000000	     34.32000000
      0.02000000	      3.34565818	     -1.75644872	     -8.04907592	     -0.00473406	      0.00472793	      0.00024204	    -29.36761935	     -5.76775550	    -24.95229158	     -4.99990866	     10.72281997	      6.05339356	    -31.39549893	     21.95316607	     25.58194847	      0.00000000	     34.32000000
      0.03000000	      3.34609403	     -1.75797597	     -8.05061773	     -0.00481999	      0.00472937	      0.00029488	    -29.36770723	     -5.76695452	    -24.95305153	     -4.99909220	     10.72206110	      6.05325095	    -31.39620199	     21.95381539	     25.58198602	      0.00000000	     34.32000000
      0.04000000	      3.35414446	     -1.78032649	     -8.06947120	     -0.00473200	      0.00466001	      0.00040147	    -29.37019021	     -5.75486528	    -24.96422852	     -4.98792683	     10.71459667	      6.04992686	    -31.40824407	     21.96778276	     25.58265589	      0.00000000	     34.32000000
      0.05000000	      3.35451988	     -1.78013910	     -8.06887217	     -0.00467143	      0.00462311	      0.00037397	    -29.37020062	     -5.75512637	    -24.96414790	     -4.98814885	     10.71467756	      6.05004207	    -31.40826586	     21.96765215	     25.58264303	      0.00000000	     34.32000000
      0.06000000	      3.35491617	     -1.78050406	     -8.06864128	     -0.00466873	      0.00460064	      0.00032838	    -29.37034672	     -5.75526800	    -24.96435218	     -4.98827021	     10.71468411	      6.05007141	    -31.40840409	     21.96769858	     25.58263578	      0.00000000	     34.32000000
      0.07000000	      3.35480737	     -1.78132193	     -8.06912328	     -0.00475848	      0.00460290	      0.00034562	    -29.37059841	     -5.75505893	    -24.96471937	     -4.98817600	     10.71486780	      6.04990604	    -31.40864027	     21.96832550	     25.58265779	      0.00000000	     34.32000000
      0.08000000	      3.35449722	     -1.78194611	     -8.06960816	     -0.00483377	      0.00460729	      0.00040126	    -29.37079419	     -5.75480198	    -24.96493511	     -4.98807522	     10.71517897	      6.04970085	    -31.40883007	     21.96910189	     25.58269148	      0.00000000	     34.32000000
      0.09000000	      3.35449722	     -1.78194611	     -8.06960816	     -0.00483377	      0.00460729	      0.00040126	    -29.37079419	     -5.75480198	    -24.96493511	     -4.98807522	     10.71517897	      6.04970085	    -31.40883007	     21.96910189	     25.58269148	      0.00000000	     34.32000000
      0.10000000	      3.35512717	     -1.78232839	     -8.06936671	     -0.00479857	      0.00461391	      0.00035418	    -29.37079439	     -5.75491887	    -24.96505972	     -4.98809094	     10.71490222	      6.04981195	    -31.40898330	     21.96892717	     25.58267608	      0.00000000	     34.32000000
      0.11000000	      3.35567811	     -1.78309375	     -8.06950801	     -0.00480835	      0.00464481	      0.00030341	    -29.37083718	     -5.75485047	    -24.96537546	     -4.98792988	     10.71448907	      6.04987719	    -31.40924728	     21.96877151	     25.58265805	      0.00000000	     34.32000000
      0.12000000	      3.35592577	     -1.78463331	     -8.07005411	     -0.00485457	      0.00467516	      0.00030693	    -29.37102750	     -5.75446289	    -24.96597637	     -4.98755109	     10.71414375	      6.04977915	    -31.40976693	     21.96908823	     25.58265766	      0.00000000	     34.32000000
      0.13000000	      3.35719067	     -1.83084921	     -8.06384807	     -0.00481047	      0.00465096	      0.00038791	    -29.38011617	     -5.75096170	    -24.97809842	     -4.98734724	     10.72104862	      6.04530275	    -31.42179130	     21.98606136	     25.58293315	      0.00000000	     34.32000000
      0.14000000	      3.35765275	     -1.83140327	     -8.06347224	     -0.00483957	      0.00459385	      0.00036900	    -29.38024389	     -5.75123637	    -24.97821882	     -4.98758020	     10.72109304	      6.04537735	    -31.42189201	     21.98617568	     25.58293584	      0.00000000	     34.32000000
      0.15000000	      3.35858129	     -1.83238849	     -8.06300919	     -0.00485011	      0.00455260	      0.00028589	    -29.38043075	     -5.75160575	    -24.97858419	     -4.98780751	     10.72082959	      6.04555229	    -31.42206647	     21.98603752	     25.58292541	      0.00000000	     34.32000000
      0.16000000	      3.35935586	     -1.83314907	     -8.06248123	     -0.00480855	      0.00456395	      0.00020090	    -29.38055879	     -5.75194123	    -24.97890807	     -4.98798121	     10.72047953	      6.04574440	    -31.42217122	     21.98563639	     25.58290423	      0.00000000	     34.32000000
      0.17000000	      3.35986232	     -1.83320383	     -8.06171073	     -0.00472461	      0.00457416	      0.00017409	    -29.38057700	     -5.75236324	    -24.97894994	     -4.98825234	     10.72027197	      6.04595377	    -31.42212606	     21.98514341	     25.58288611	      0.00000000	     34.32000000
      0.18000000	      3.36036258	     -1.83267940	     -8.06068245	     -0.00464952	      0.00453580	      0.00020913	    -29.38052449	     -5.75300155	    -24.97871386	     -4.98873808	     10.72025980	      6.04621147	    -31.42196919	     21.98475562	     25.58288552	      0.00000000	     34.32000000
      0.19000000	      3.36071438	     -1.83182051	     -8.05962418	     -0.00461071	      0.00448739	      0.00027835	    -29.38043731	     -5.75373656	    -24.97825437	     -4.98936544	     10.72050540	      6.04645064	    -31.42170990	     21.98457129	     25.58290773	      0.00000000	     34.32000000
      0.20000000	      3.37303039	     -1.80873440	     -8.03293222	     -0.00470297	      0.00455659	      0.00031614	    -29.37891692	     -5.77845876	    -24.96243686	     -5.01188694	     10.73367238	      6.05310344	    -31.41138492	     21.98684204	     25.58513864	      0.00000000	     34.32000000
      0.21000000	      3.37293933	     -1.80776749	     -8.03233057	     -0.00465315	      0.00450782	      0.00038734	    -29.37885246	     -5.77893853	    -24.96191778	     -5.01239728	     10.73420953	      6.05317487	    -31.41109065	     21.98724898	     25.58521862	      0.00000000	     34.32000000
      0.22000000	      3.37316076	     -1.80700612	     -8.03169615	     -0.00461130	      0.00446307	      0.00039957	    -29.37883831	     -5.77950138	    -24.96150965	     -5.01295147	     10.73465798	      6.05328792	    -31.41079267	     21.98760940	     25.58529618	      0.00000000	     34.32000000
      0.23000000	      3.37981886	     -1.78118468	     -8.02881204	     -0.00463531	      0.00452435	      0.00027890	    -29.38388993	     -5.80056210	    -24.95002496	     -5.03674668	     10.76134974	      6.05425991	    -31.39361823	     22.03359218	     25.59234056	      0.00000000	     34.32000000
      0.24000000	      3.37964688	     -1.78110349	     -8.02936530	     -0.00462162	      0.00459720	      0.00028790	    -29.38388639	     -5.80036594	    -24.95009489	     -5.03658134	     10.76129888	      6.05419665	    -31.39357500	     22.03393809	     25.59239531	      0.00000000	     34.32000000
      0.25000000	      3.37938614	     -1.78051115	     -8.02953730	     -0.00457556	      0.00465157	      0.00029749	    -29.38376167	     -5.80031874	    -24.94988346	     -5.03654391	     10.76132779	      6.05419174	    -31.39340570	     22.03399225	     25.59243912	      0.00000000	     34.32000000
